# xmcd
#
# Track frame offsets: 
#        150
#        19422
#        36690
#        54173
#
# Disc length: 968 seconds
#
# Revision: 0
# Processed by: cddbd v1.5.2PL0 Copyright (c) Steve Scherf et al.
# Submitted via: ExactAudioCopy v0.95a5
#
DISCID=3103c604
DTITLE=Keith Urban - Once In A Lifetime
DYEAR=1900
DGENRE=
TTITLE0=ONCE IN A LIFETIME
TTITLE1=DAYS GO BYE (LIVE)
TTITLE2=YOU'LL THINK OF ME
TTITLE3=YOU'RE MY BETTER HALF
EXTD=
EXTT0=
EXTT1=
EXTT2=
EXTT3=
PLAYORDER=
